<svg width="67" height="72" viewBox="0 0 67 72" fill="none" xmlns="http://www.w3.org/2000/svg">
<g filter="url(#filter0_b_73_2095)">
<path fill-rule="evenodd" clip-rule="evenodd" d="M0 21.084L33.4503 0L67 21.1049H53.8258C61.4436 32.2469 58.8451 43.0691 53.7645 49.925H66.8245L33.4715 72L0.18183 49.9061L13.1573 49.8894C7.45713 42.0571 6.01941 31.8518 13.1361 21.1049L0 21.084ZM23.0459 50.5648C23.4264 44.1793 27.4055 39.3662 34.1015 39.5168C39.6198 40.1252 43.2416 43.9724 43.8188 50.4832C45.9606 43.9347 42.62 36.9053 33.6216 36.4119C24.6654 36.8698 21.0457 43.0587 23.0459 50.5648ZM46.1678 49.8079C51.3225 40.8131 42.9668 29.7108 34.2326 30.2816C24.2003 29.3616 14.8466 40.8131 20.828 49.8581C18.6058 39.7259 26.8537 33.3007 34.4715 33.9468C40.419 34.4549 47.4131 39.4896 46.1678 49.8079ZM49.8678 47.6209C55.3375 36.2927 45.3475 22.0918 34.0021 22.8361C20.9802 21.6381 10.9901 37.1667 17.1279 47.577C14.2419 35.7596 24.6527 26.5306 34.5455 27.3669C42.2775 28.0339 51.5022 34.2186 49.8678 47.6209ZM53.0372 46.5253C59.9953 29.8969 49.0602 13.6678 33.2431 13.8978C17.7474 14.4686 6.85244 29.8822 13.8909 46.4688C6.29004 14.3369 57.8768 8.12708 53.0372 46.5253ZM38.6029 43.1967L38.5585 52.6263H28.1434V43.2343C25.8621 44.8505 24.6612 47.4076 24.6612 50.3766C24.6612 55.3089 28.4838 59.2292 33.5011 59.2292C38.5204 59.2292 42.2373 55.2169 42.2373 50.2825C42.2395 47.2382 40.9603 44.8108 38.6029 43.1967Z" fill="white"/>
</g>
<defs>
<filter id="filter0_b_73_2095" x="-4" y="-4" width="75" height="80" filterUnits="userSpaceOnUse" color-interpolation-filters="sRGB">
<feFlood flood-opacity="0" result="BackgroundImageFix"/>
<feGaussianBlur in="BackgroundImage" stdDeviation="2"/>
<feComposite in2="SourceAlpha" operator="in" result="effect1_backgroundBlur_73_2095"/>
<feBlend mode="normal" in="SourceGraphic" in2="effect1_backgroundBlur_73_2095" result="shape"/>
</filter>
</defs>
</svg>
